<?xml version="1.0" standalone="no"?>
<!DOCTYPE svg PUBLIC "-//W3C//DTD SVG 20010904//EN"
 "http://www.w3.org/TR/2001/REC-SVG-20010904/DTD/svg10.dtd">
<svg version="1.0" xmlns="http://www.w3.org/2000/svg"
 width="275.000000pt" height="98.000000pt" viewBox="0 0 275.000000 98.000000"
 preserveAspectRatio="xMidYMid meet">

<g transform="translate(0.000000,98.000000) scale(0.100000,-0.100000)"
fill="#000000" stroke="none">
<path d="M460 952 c0 -12 20 -26 64 -46 115 -49 192 -156 203 -277 5 -54 8
-59 29 -59 29 0 31 28 9 113 -31 120 -104 211 -207 260 -67 32 -98 35 -98 9z"/>
<path d="M430 840 c0 -13 13 -26 39 -39 72 -37 125 -111 145 -203 5 -20 13
-28 28 -28 19 0 20 4 15 45 -12 88 -69 168 -151 215 -60 35 -76 37 -76 10z"/>
<path d="M1118 714 c-60 -18 -148 -98 -179 -161 -17 -36 -23 -66 -23 -118 0
-77 14 -113 61 -157 81 -77 243 -79 338 -3 19 15 19 16 -16 51 l-36 36 -34
-21 c-23 -14 -51 -21 -86 -21 -44 0 -56 4 -82 31 -41 40 -45 113 -10 180 50
100 180 128 248 55 l24 -25 43 31 c41 29 43 33 31 52 -48 73 -170 104 -279 70z"/>
<path d="M130 714 c0 -5 -113 -433 -126 -476 -5 -16 2 -18 49 -18 51 0 55 2
62 28 3 15 13 51 21 80 l15 52 43 0 42 0 36 -80 36 -80 61 0 c34 0 61 2 61 5
0 3 -18 41 -40 85 -22 44 -40 81 -40 84 0 2 13 6 30 9 74 15 140 116 125 194
-8 46 -56 97 -103 111 -39 12 -272 17 -272 6z m242 -111 c33 -30 22 -85 -23
-108 -27 -14 -169 -22 -169 -9 0 3 8 35 17 70 l17 64 70 0 c51 0 74 -4 88 -17z"/>
<path d="M1672 708 c-5 -7 -83 -119 -172 -248 l-161 -235 47 -3 c25 -2 52 -1
60 2 7 3 30 30 50 61 l37 56 101 -3 101 -3 10 -55 11 -55 52 -3 c47 -3 52 -1
52 17 0 11 -16 120 -35 241 -19 121 -35 225 -35 230 0 15 -106 12 -118 -2z
m42 -180 c12 -102 14 -98 -54 -98 -33 0 -60 2 -60 5 0 10 93 145 100 145 4 0
10 -24 14 -52z"/>
<path d="M2055 708 c-10 -31 -125 -471 -125 -479 0 -5 75 -9 174 -9 l175 0 13
48 14 47 -124 3 c-97 2 -123 5 -119 16 3 7 22 75 42 152 20 76 43 160 50 187
l14 47 -55 0 c-35 0 -56 -5 -59 -12z"/>
<path d="M2496 703 c-13 -45 -126 -472 -126 -478 0 -3 79 -4 176 -3 l177 3 13
45 c8 25 14 46 14 48 0 1 -54 2 -120 2 -96 0 -120 3 -120 14 0 12 77 310 95
365 6 19 2 21 -49 21 -43 0 -56 -4 -60 -17z"/>
<path d="M607 473 c-3 -5 -8 -23 -12 -40 l-7 -33 91 0 c77 0 90 2 95 18 2 9 7
27 11 40 6 22 5 22 -84 22 -49 0 -92 -3 -94 -7z"/>
<path d="M2 68 l1 -43 4 37 c3 28 9 38 26 41 18 4 17 5 -5 6 -27 1 -28 -1 -26
-41z"/>
<path d="M102 68 l1 -43 4 37 c4 31 8 37 31 41 24 4 24 4 -5 6 -33 1 -33 0
-31 -41z"/>
<path d="M302 68 l1 -43 4 38 c4 31 8 37 28 37 20 0 24 -6 28 -37 l4 -38 1 43
c2 42 2 42 -33 42 -35 0 -35 0 -33 -42z"/>
<path d="M412 68 l1 -43 4 38 c3 29 8 37 25 37 16 0 19 -5 15 -21 -4 -16 -3
-19 5 -11 17 17 1 42 -27 42 -23 0 -25 -3 -23 -42z"/>
<path d="M515 100 c-3 -6 1 -7 9 -4 18 7 21 14 7 14 -6 0 -13 -4 -16 -10z"/>
<path d="M622 68 l1 -43 4 37 c3 28 9 38 26 41 18 4 17 5 -5 6 -27 1 -28 -1
-26 -41z"/>
<path d="M735 100 c-3 -6 1 -7 9 -4 18 7 21 14 7 14 -6 0 -13 -4 -16 -10z"/>
<path d="M868 103 c6 -2 18 -2 25 0 6 3 1 5 -13 5 -14 0 -19 -2 -12 -5z"/>
<path d="M953 70 c0 -25 2 -35 4 -22 2 12 2 32 0 45 -2 12 -4 2 -4 -23z"/>
<path d="M1085 100 c-3 -5 -1 -10 4 -10 6 0 11 5 11 10 0 6 -2 10 -4 10 -3 0
-8 -4 -11 -10z"/>
<path d="M1198 103 c27 -5 30 -33 3 -33 -10 0 -22 -8 -26 -17 -5 -15 -4 -16 6
-5 18 17 37 15 42 -5 3 -10 5 1 6 25 1 40 0 42 -26 41 -24 -2 -25 -2 -5 -6z"/>
<path d="M1332 98 c-17 -17 -15 -43 6 -59 14 -11 15 -11 5 1 -18 20 -16 47 5
59 9 6 12 11 7 11 -6 0 -16 -5 -23 -12z"/>
<path d="M1471 87 c-13 -21 -12 -21 5 -5 10 10 16 20 13 22 -3 3 -11 -5 -18
-17z"/>
<path d="M1545 100 c-3 -6 1 -7 9 -4 18 7 21 14 7 14 -6 0 -13 -4 -16 -10z"/>
<path d="M1647 102 c6 -4 13 -23 16 -42 l4 -35 1 37 c1 20 8 39 15 41 6 3 -1
6 -18 6 -17 0 -25 -3 -18 -7z"/>
<path d="M1753 103 c9 -2 23 -2 30 0 6 3 -1 5 -18 5 -16 0 -22 -2 -12 -5z"/>
<path d="M1830 71 c0 -23 2 -41 4 -41 8 0 12 71 4 76 -4 3 -8 -13 -8 -35z"/>
<path d="M1898 103 c-2 -5 -1 -24 3 -43 l6 -35 2 43 c1 39 -3 52 -11 35z"/>
<path d="M2133 103 c9 -2 23 -2 30 0 6 3 -1 5 -18 5 -16 0 -22 -2 -12 -5z"/>
<path d="M2375 70 c0 -21 3 -37 6 -34 8 4 6 60 -1 68 -3 2 -5 -13 -5 -34z"/>
<path d="M2470 106 c0 -2 7 -7 16 -10 8 -3 12 -2 9 4 -6 10 -25 14 -25 6z"/>
<path d="M2577 103 c17 -3 21 -10 19 -38 -2 -19 0 -32 4 -30 4 3 7 19 6 37 -1
28 -6 33 -26 34 -20 1 -21 0 -3 -3z"/>
<path d="M852 70 c0 -14 2 -19 5 -12 2 6 2 18 0 25 -3 6 -5 1 -5 -13z"/>
<path d="M673 58 c1 -15 6 -23 11 -18 4 4 4 16 -2 26 -9 16 -10 14 -9 -8z"/>
<path d="M1860 66 c7 -7 13 -7 20 0 6 6 3 10 -10 10 -13 0 -16 -4 -10 -10z"/>
<path d="M2163 58 c1 -15 6 -23 11 -18 4 4 4 16 -2 26 -9 16 -10 14 -9 -8z"/>
<path d="M2228 73 c6 -2 18 -2 25 0 6 3 1 5 -13 5 -14 0 -19 -2 -12 -5z"/>
<path d="M2658 63 c-4 -16 -1 -18 23 -15 19 3 29 0 29 -9 0 -7 2 -10 5 -7 11
11 -7 37 -22 31 -8 -3 -18 0 -23 6 -5 9 -9 7 -12 -6z"/>
<path d="M1956 55 c-2 -5 11 -10 29 -10 18 0 31 5 29 10 -2 6 -15 10 -29 10
-14 0 -27 -4 -29 -10z"/>
<path d="M1073 53 c9 -2 25 -2 35 0 9 3 1 5 -18 5 -19 0 -27 -2 -17 -5z"/>
<path d="M2266 43 c-6 -14 -5 -15 5 -6 7 7 10 15 7 18 -3 3 -9 -2 -12 -12z"/>
<path d="M2430 51 c0 -6 4 -13 10 -16 6 -3 7 1 4 9 -7 18 -14 21 -14 7z"/>
<path d="M1430 39 c0 -5 5 -7 10 -4 6 3 10 8 10 11 0 2 -4 4 -10 4 -5 0 -10
-5 -10 -11z"/>
<path d="M835 29 c-4 -6 -5 -12 -2 -15 2 -3 7 2 10 11 7 17 1 20 -8 4z"/>
</g>
</svg>
