<svg width="121" height="47" viewBox="0 0 121 47" fill="none" xmlns="http://www.w3.org/2000/svg">
<path d="M20.4399 36.3008C19.7441 36.7769 19.1582 37.2529 18.7554 37.7656C18.5723 37.9487 18.4258 38.0952 18.2427 38.2783C16.0088 40.5854 13.5186 42.4897 10.6987 44.0278C8.57471 45.2363 6.3042 45.8589 3.85059 45.8955C1.54346 45.749 0.591309 44.5405 0.920898 42.3066C1.03076 41.7207 1.17725 41.1714 1.39697 40.6221C3.521 35.605 6.92676 31.7598 11.6143 29.0498C15.02 26.8892 18.2061 27.3652 21.1724 30.5146C21.3921 30.4414 21.5386 30.3315 21.6118 30.1851C21.6484 30.0386 21.6851 29.8555 21.7217 29.6724C21.7217 29.5625 21.7217 29.4893 21.7583 29.416C23.333 22.5679 25.6768 16.0127 28.7529 9.67725C29.8516 7.40674 31.1699 5.28271 32.708 3.26855C33.4771 2.27979 34.356 1.4375 35.418 0.77832C36.7729 -0.0639648 38.1279 -0.0639648 39.4463 0.851562C40.5083 1.76709 40.8379 2.93896 40.5083 4.36719C40.1787 6.01514 39.666 7.62646 38.897 9.12793C37.2856 12.4604 35.418 15.6465 33.3306 18.686C30.3276 23.1904 27.1416 27.585 23.7358 31.8696C22.9668 32.7852 22.564 33.8472 22.4541 35.019C22.4175 35.4219 22.3809 35.7881 22.3442 36.1543C22.0879 37.8389 22.1245 39.5234 22.3809 41.208C22.7104 43.4419 23.8823 44.1377 25.8965 43.2588C27.4712 42.6362 28.9727 41.8672 30.3276 40.8784C33.8799 38.4614 37.249 35.8613 40.4717 33.0415C40.9111 32.6387 41.3506 32.2725 41.8267 31.9429C42.0098 31.7964 42.2295 31.7598 42.4126 31.7964C42.5957 31.833 42.7422 31.9429 42.8521 32.0894C43.1084 32.3823 43.1084 32.6753 42.9253 33.0049C42.7422 33.2612 42.4858 33.5176 42.2295 33.7007C38.4209 37.1431 34.356 40.2559 30.0713 43.0391C28.7896 43.918 27.3979 44.6138 25.8965 45.0898C23.2964 45.8589 21.6484 44.9434 20.8794 42.3066C20.5498 40.8784 20.4033 39.4136 20.5132 37.9487C20.5498 37.729 20.5498 37.5093 20.5498 37.2896C20.5498 37.1431 20.5498 36.96 20.5132 36.7402C20.4766 36.6304 20.4766 36.4839 20.4399 36.3008ZM4.50977 44.1377C6.3042 44.0278 7.95215 43.5518 9.52686 42.7095C13.5552 40.5122 16.9976 37.6191 19.854 34.0303C20.3301 33.481 20.4033 32.895 20.0371 32.2725C18.792 29.8921 16.8511 29.0498 14.2144 29.7456C13.0425 30.1118 11.9438 30.6611 10.9551 31.4302C7.84229 33.6641 5.42529 36.4473 3.63086 39.8164C3.30127 40.439 3.0083 41.0981 2.78857 41.7939C2.49561 42.7095 2.49561 43.332 2.75195 43.6616C3.0083 43.9912 3.59424 44.1743 4.50977 44.1377ZM24.1021 28.6836C28.8628 22.6411 33.0742 16.3423 36.6997 9.78711C37.5054 8.28564 38.1279 6.74756 38.604 5.13623C38.7871 4.58691 38.897 4.00098 38.8604 3.41504C38.8237 2.27979 38.2012 1.76709 37.0659 1.9502C36.2236 2.16992 35.5278 2.60938 34.9785 3.26855C33.5503 4.77002 32.3418 6.45459 31.3896 8.32227C28.2036 14.3647 25.75 20.6636 24.0288 27.2554C24.0288 27.292 24.0288 27.3286 23.9922 27.3652C23.9556 27.5483 23.9189 27.7314 23.9189 27.9146C23.8823 28.1343 23.9556 28.3906 24.1021 28.6836ZM39.7627 45.6758C37.6021 45.6758 36.5034 44.4307 36.4668 41.9038C36.5034 41.1348 36.6133 40.3657 36.833 39.5967C38.5908 34.3599 41.96 30.5513 46.9038 28.0977C48.4419 27.3286 50.0532 26.9624 51.7012 26.9624C55.2534 26.9624 57.5605 28.4272 58.6226 31.3569C58.7324 31.6499 58.769 31.9795 58.769 32.3091C58.769 32.7852 58.5859 33.0781 58.1831 33.188H58.0366C57.707 33.188 57.3774 32.7852 57.0479 31.9795L56.9014 31.6865C55.9492 29.6724 54.3745 28.647 52.1406 28.647C50.1997 28.647 48.4053 29.123 46.7573 30.0386C42.8755 32.2358 40.1655 35.4219 38.6274 39.5967L38.5542 39.853C38.188 40.7319 38.0049 41.4644 38.0049 42.0503C38.0049 42.5996 38.2612 43.1123 38.7373 43.5884C39.1401 43.918 39.543 44.0645 39.9824 44.0645C40.5684 44.0645 41.3008 43.8081 42.1431 43.332C42.2896 43.2954 42.436 43.2222 42.5459 43.1489C45.7686 41.5742 49.687 38.498 54.2646 33.957L54.5576 33.7007C54.9971 33.1514 55.3999 32.895 55.8027 32.895C55.9858 32.895 56.2056 32.9683 56.4253 33.0781C56.7549 33.3345 56.9014 33.5908 56.9014 33.8838C56.8647 34.2134 56.8281 34.543 56.7183 34.8726C56.645 35.0557 56.6084 35.2021 56.5718 35.3853L56.2422 36.7769C55.8394 38.6445 55.6562 39.853 55.6562 40.3291C55.6562 40.8418 55.7295 41.3545 55.876 41.8672C56.1689 42.9292 56.7549 43.4419 57.6338 43.4419C57.8901 43.4419 58.2197 43.4053 58.5493 43.2954C59.9043 42.8193 61.1494 42.1602 62.3213 41.3545C66.4229 38.7178 70.3047 35.7881 73.9668 32.6021C74.333 32.3457 74.6626 32.0527 74.9922 31.7231C75.3218 31.5034 75.5781 31.3936 75.7612 31.3936C75.981 31.3936 76.2007 31.5034 76.3838 31.7231C76.4937 31.8696 76.5669 32.0161 76.5669 32.1992C76.5669 32.4922 76.2739 32.8584 75.7246 33.3345C71.5498 37.0332 67.082 40.3657 62.3579 43.2954C60.417 44.5039 58.8057 45.0898 57.4873 45.0898C55.5464 45.0898 54.4111 43.8081 54.0815 41.208L54.0449 40.2925C54.0449 39.1206 54.1914 37.8755 54.4844 36.5938C53.9351 36.7402 53.3857 37.0698 52.873 37.5825C52.7632 37.6924 52.6533 37.8022 52.5435 37.9121C50.2363 40.0361 47.7827 41.9404 45.1826 43.625C43.8276 44.5405 42.3628 45.1997 40.7881 45.6025C40.4219 45.6392 40.0923 45.6758 39.7627 45.6758ZM81.8638 46.2617H81.6074C80.3989 46.2617 79.7764 45.6025 79.6665 44.3208C79.6665 43.1855 79.8496 42.0869 80.2524 41.0249L82.4131 34.5063C82.1567 34.5063 81.9004 34.5063 81.644 34.543C81.0947 34.5796 80.4722 34.6162 79.7764 34.6162C79.3003 34.6162 78.8608 34.5796 78.3848 34.5063C76.7002 34.25 75.5283 33.7007 74.8325 32.9316C74.0269 32.0161 73.624 30.4048 73.624 28.1343C73.624 27.2188 73.7705 26.3398 74.0635 25.4976C74.9058 23.7397 76.2974 22.8608 78.165 22.8608H78.5312C79.8496 23.0439 80.5088 23.7397 80.5088 24.9116C80.5088 25.168 80.4722 25.4243 80.4355 25.6807C79.9595 27.2188 79.0439 28.8301 77.7256 30.478C77.2129 31.1372 76.9565 31.6133 76.9565 31.9429C76.9565 32.3457 77.5791 32.6387 78.7876 32.7852C79.1904 32.8584 79.5566 32.895 79.9229 32.895C80.9849 32.895 82.0103 32.6387 82.999 32.0894C83.1089 32.0527 83.2188 31.9795 83.3286 31.9062C83.6216 31.6499 83.9146 31.54 84.2075 31.54C84.3906 31.54 84.6104 31.6499 84.7935 31.833C84.9766 32.0161 85.0498 32.2358 85.0498 32.4189C85.0498 32.7119 84.9766 33.0049 84.8301 33.2979C84.7568 33.4077 84.7202 33.5542 84.6836 33.6641L83.6948 36.374C83.1089 37.9487 82.5596 39.5601 82.0469 41.1348L81.9004 41.5376C81.6074 42.27 81.4609 42.8926 81.4609 43.4053C81.4609 43.8081 81.5342 44.2109 81.6807 44.6138C83.292 44.1377 84.6836 43.4053 85.8555 42.4897C89.188 40.1826 92.374 37.6924 95.4502 35.0557L97.8672 33.0781C98.1602 32.7852 98.6362 32.4189 99.2588 31.9795C99.4419 31.833 99.625 31.7598 99.8813 31.7598C100.064 31.7598 100.211 31.833 100.394 32.0161C100.577 32.1992 100.65 32.3823 100.65 32.6021C100.65 32.8584 100.357 33.2612 99.8081 33.7373H99.7715L97.0981 35.9346C93.9854 38.5713 90.7993 41.0981 87.5034 43.4785C86.4048 44.1743 85.3062 44.8701 84.1709 45.4927C83.4751 45.9688 82.7061 46.2251 81.8638 46.2617ZM75.748 29.7822C77.396 28.3906 78.3481 26.7793 78.6777 24.9116C78.3848 24.875 78.0918 24.8384 77.8354 24.8384C76.8833 24.8384 76.1875 25.2046 75.7847 25.9004C75.5283 26.3398 75.3818 26.8892 75.3818 27.585C75.3818 28.2075 75.4917 28.9399 75.748 29.7822ZM97.3413 46.4814C96.4258 46.4814 95.9863 45.6758 95.9863 44.1011C95.9863 43.5518 96.0596 43.0391 96.1694 42.4897C96.9385 39.2305 97.9639 36.0078 99.209 32.895C99.4653 32.126 99.7583 31.7231 100.161 31.7231C100.271 31.7231 100.381 31.7598 100.527 31.833C100.674 31.9062 100.784 31.9795 100.894 32.0894C100.967 32.1992 101.003 32.3091 101.003 32.4189C101.003 32.7119 100.82 33.3345 100.491 34.25L100.234 34.9824C99.209 37.6191 98.4033 40.3291 97.854 43.1489C97.7808 43.332 97.7441 43.5518 97.7441 43.8447C97.7441 44.0278 97.8174 44.2476 98.0005 44.5039C98.916 44.1011 99.7949 43.5518 100.637 42.8926L103.494 40.915C105.654 39.3403 107.852 37.8755 110.085 36.4473C112.319 34.9824 114.7 33.8472 117.227 33.0415C117.922 32.8584 118.618 32.7485 119.314 32.7485C119.717 32.7485 120.01 32.7852 120.193 32.895C120.376 33.0049 120.486 33.2612 120.486 33.5908C120.486 34.0303 120.229 34.2866 119.68 34.3232C116.641 34.6528 112.905 36.374 108.511 39.4868L100.71 44.9067C99.9048 45.5293 98.9893 46.042 98.0005 46.3716C97.7441 46.4448 97.5244 46.4814 97.3413 46.4814ZM100.344 29.4526C99.8682 29.3794 99.6118 29.0864 99.6118 28.6104C99.6118 28.5005 99.6484 28.3906 99.7217 28.2808C100.527 27.3286 101.516 26.6694 102.688 26.2666L102.908 26.23C103.274 26.23 103.457 26.5229 103.457 27.1089C103.42 27.3286 103.164 27.6216 102.761 27.9878C102.358 28.354 101.882 28.6836 101.406 28.9766C100.93 29.3062 100.564 29.4526 100.344 29.4526Z" fill="black"/>
</svg>
