<?xml version="1.0" standalone="no"?>
<!DOCTYPE svg PUBLIC "-//W3C//DTD SVG 20010904//EN"
 "http://www.w3.org/TR/2001/REC-SVG-20010904/DTD/svg10.dtd">
<svg version="1.0" xmlns="http://www.w3.org/2000/svg"
 width="113.000000pt" height="83.000000pt" viewBox="0 0 113.000000 83.000000"
 preserveAspectRatio="xMidYMid meet">

<g transform="translate(0.000000,83.000000) scale(0.100000,-0.100000)"
fill="#000000" stroke="none">
<path d="M500 724 c0 -5 29 -10 65 -10 54 -1 75 -7 113 -31 63 -39 103 -105
112 -186 4 -34 8 -54 9 -43 1 15 6 17 33 12 37 -7 73 -38 95 -80 21 -41 14
-133 -15 -173 -42 -59 -63 -63 -349 -63 -289 0 -307 4 -350 69 -28 42 -31 120
-5 171 23 46 75 80 123 80 22 0 39 5 39 10 0 6 -7 10 -15 10 -20 0 -20 61 -1
99 37 71 162 66 201 -9 11 -22 15 -63 15 -165 l0 -137 -42 36 c-23 20 -43 34
-45 32 -6 -6 80 -85 92 -86 6 0 31 20 55 45 53 54 42 61 -12 8 l-38 -37 0 142
c0 169 -8 193 -76 223 -37 17 -50 18 -84 9 -23 -6 -50 -20 -60 -30 -19 -19
-40 -79 -40 -116 0 -16 -8 -23 -29 -27 -78 -16 -134 -122 -111 -209 15 -55 43
-94 83 -116 28 -15 65 -17 303 -17 l270 0 41 27 c50 33 73 80 73 153 0 85 -37
140 -111 164 -32 10 -37 16 -42 52 -8 59 -55 129 -110 163 -36 22 -62 30 -117
34 -38 2 -70 1 -70 -4z"/>
</g>
</svg>
